<svg width="85" height="144" viewBox="0 0 85 144" fill="none" xmlns="http://www.w3.org/2000/svg">
<path d="M72.5846 143.838C69.5125 143.461 67.2046 140.897 67.1951 137.852C67.1951 137.852 60.8576 134.739 62.3915 118.567C63.9251 102.394 57.852 94.4424 57.852 94.4424C50.6516 84.4383 45.9116 72.9266 44.0054 60.8139C41.4404 59.7388 35.4315 64.0086 35.4315 64.0086C24.4905 69.1332 19.2796 61.5518 17.7291 58.5819C18.596 59.1931 20.9133 59.0129 27.1842 54.181C37.5203 46.1989 44.0672 50.4874 44.0672 50.4874C50.4214 40.7674 48.2995 39.0109 55.4681 28.792C62.6367 18.5733 84.9881 27.1362 85 27.1362V144L72.5846 143.838ZM71.2414 81.0548C71.2771 80.9237 74.1255 70.5292 73.3706 68.0441C73.3706 68.0441 70.7984 76.771 70.0054 75.8529C70.0054 75.8529 52.8245 71.7753 51.1122 69.3159C51.1122 69.3159 55.2418 79.3193 60.9409 80.8463C62.963 80.4084 65.0231 80.1648 67.0926 80.1203C68.5404 80.0056 69.9888 80.3318 71.2414 81.0548ZM17.1837 57.4716C17.335 57.8577 17.5108 58.234 17.7101 58.5983C17.5406 58.4626 17.405 58.2904 17.3138 58.0952C17.2225 57.8999 17.178 57.6865 17.1837 57.4716ZM11.2297 37.5141C-8.33278 22.7236 3.6086 0 3.6086 0C5.35431 11.4016 8.78383 19.3813 18.0268 25.0986C27.9844 31.2466 50.131 30.5884 50.131 30.5884L43.9886 44.0792C41.623 44.4218 39.2352 44.5939 36.8438 44.5945C27.8057 44.5945 18.9414 42.14 11.2297 37.5049V37.5141Z" fill="#423B32" fill-opacity="0.37"/>
</svg>
